<?xml version="1.0" standalone="no"?>
<!DOCTYPE svg PUBLIC "-//W3C//DTD SVG 20010904//EN"
 "http://www.w3.org/TR/2001/REC-SVG-20010904/DTD/svg10.dtd">
<svg version="1.0" xmlns="http://www.w3.org/2000/svg"
 width="260.000000pt" height="260.000000pt" viewBox="0 0 260.000000 260.000000"
 preserveAspectRatio="xMidYMid meet">
<metadata>
Created by potrace 1.11, written by Peter Selinger 2001-2013
</metadata>
<g transform="translate(0.000000,260.000000) scale(0.100000,-0.100000)"
fill="#000000" stroke="none">
<path d="M0 1300 l0 -1300 1300 0 1300 0 0 1300 0 1300 -1300 0 -1300 0 0
-1300z m1276 817 c33 -29 42 -81 43 -247 1 -63 4 -179 8 -257 l6 -142 61 5
c56 5 65 3 106 -24 25 -16 62 -33 83 -36 85 -16 127 -97 127 -252 0 -86 -37
-217 -81 -289 -17 -27 -32 -59 -32 -70 0 -11 10 -66 21 -122 12 -55 22 -114
22 -130 0 -42 -52 -87 -125 -109 -110 -33 -363 -18 -396 23 -9 10 -10 46 -6
123 4 74 3 118 -5 135 -6 14 -48 48 -92 77 -170 108 -210 163 -210 290 -1 64
23 106 67 122 33 12 37 8 52 -56 11 -48 12 -39 11 113 -1 151 1 169 18 188 30
33 90 45 128 27 17 -9 35 -16 39 -16 5 0 8 135 8 300 0 307 2 328 40 357 26
20 77 15 107 -10z"/>
</g>
</svg>
