<?xml version="1.0" standalone="no"?>
<!DOCTYPE svg PUBLIC "-//W3C//DTD SVG 20010904//EN"
 "http://www.w3.org/TR/2001/REC-SVG-20010904/DTD/svg10.dtd">
<svg version="1.0" xmlns="http://www.w3.org/2000/svg"
 width="260.000000pt" height="260.000000pt" viewBox="0 0 260.000000 260.000000"
 preserveAspectRatio="xMidYMid meet">
<metadata>
Created by potrace 1.11, written by Peter Selinger 2001-2013
</metadata>
<g transform="translate(0.000000,260.000000) scale(0.100000,-0.100000)"
fill="#000000" stroke="none">
<path d="M1218 2140 l-33 -28 -2 -263 c-2 -145 -3 -286 -3 -312 l0 -48 -28 20
c-16 11 -37 18 -48 16 -10 -2 -19 -4 -19 -5 0 -1 -11 -3 -24 -6 -52 -10 -81
-61 -81 -146 0 -29 0 -64 0 -76 0 -32 -7 -42 -30 -42 -30 0 -93 -66 -87 -90 3
-11 1 -17 -4 -14 -6 3 -7 -18 -3 -53 3 -32 6 -63 6 -70 1 -7 5 -10 10 -7 4 3
8 -3 8 -12 0 -29 54 -134 69 -134 8 0 11 -3 8 -6 -6 -7 43 -39 76 -50 9 -4 17
-10 17 -14 0 -5 9 -12 20 -15 31 -10 39 -35 29 -90 -5 -28 -12 -66 -15 -85 -3
-19 -7 -40 -9 -47 -14 -41 148 -120 238 -116 9 0 17 -3 17 -8 0 -4 13 -4 29 1
16 4 32 5 36 2 8 -9 65 -10 65 -1 0 3 10 5 23 4 36 -4 215 50 204 62 -2 2 11
19 29 38 21 23 31 42 28 55 -2 11 -6 30 -9 43 -23 102 -24 211 -2 233 4 4 7
18 7 30 0 13 5 26 10 29 6 4 8 11 4 16 -3 5 -1 15 4 22 5 7 8 20 7 30 -2 9 0
17 3 17 13 0 18 173 8 240 -4 25 -8 51 -8 58 -1 6 -5 12 -10 12 -4 0 -8 9 -8
20 0 17 -44 72 -62 78 -5 1 -9 2 -10 3 -5 1 -33 8 -55 13 -11 2 -39 17 -62 31
-39 26 -86 33 -146 23 -21 -3 -28 18 -12 40 6 7 6 12 0 12 -13 0 -13 32 1 49
8 11 8 13 -1 8 -8 -5 -12 21 -13 100 -3 185 -8 318 -14 357 -6 34 -35 102 -36
83 0 -4 -10 -2 -22 4 -39 21 -65 18 -100 -11z"/>
</g>
</svg>
